# xmcd CD database file
#
# Track frame offsets:
#	150
#	13133
#	22823
#	34828
#	45660
#	55533
#	66865
#	75383
#	86340
#	96915
#	107408
#	117495
#
# Disc length: 1785 seconds
#
# Revision: 2
# Processed by: cddbd v1.5.2PL0 Copyright (c) Steve Scherf et al.
# Submitted via: CDex 1.70beta2
#
DISCID=8706f70c
DTITLE=Françoise Hardy - Maison Ou J'ai Grandi
DYEAR=1996
DGENRE=Rock
TTITLE0=Je Changerais d'Avis (Se Telefonando)
TTITLE1=Si C'Est Ca
TTITLE2=Rendez-Vous d'Automne
TTITLE3=Je Serai Là Pour Toi
TTITLE4=Peut-etre Que Je T'Aime
TTITLE5=Il Est des Choses
TTITLE6=Comme
TTITLE7=Mes Jours S'En Vont
TTITLE8=Qu'ils Sont Heureux
TTITLE9=Surtout Ne Vous Retournez Pas
TTITLE10=Tu Es un Peu à Moi
TTITLE11=La Maison Où J'Ai Grandi (Il Ragazzo Della Via Gluck)
EXTD=YEAR: 1996
EXTT0=
EXTT1=
EXTT2=
EXTT3=
EXTT4=
EXTT5=
EXTT6=
EXTT7=
EXTT8=
EXTT9=
EXTT10=
EXTT11=
PLAYORDER=
